<svg width="844" height="449" viewBox="0 0 844 449" fill="none" xmlns="http://www.w3.org/2000/svg">
<g clip-path="url(#clip0)">
<path opacity="0.1" d="M779.289 355.047C778.349 357.072 777.411 359.071 776.477 361.043C775.018 364.105 773.578 367.108 772.157 370.052C771.524 371.357 770.892 372.637 770.276 373.917C763.306 388.152 756.797 400.743 751.27 411.098C746.254 420.48 738.806 428.341 729.707 433.858C720.608 439.374 710.192 442.343 699.551 442.453L576.637 443.79H575.34L564.804 443.904L555.791 444.001L528.153 444.301H527.034L512.964 444.455H512.534L425.809 445.395L348.398 446.205L339.393 446.302L283.468 446.91H283.403L247.133 447.299H246.744L132.056 448.538L97.7476 448.911C90.426 448.994 83.1353 447.95 76.1313 445.816C63.9429 442.135 52.9891 435.203 44.4484 425.763C29.7134 409.534 18.9741 390.599 11.7606 370.052C10.7177 367.087 9.7451 364.084 8.84273 361.043C-16.1291 276.658 14.3137 167.789 69.1041 94.9336C71.4006 91.8872 73.7349 88.9163 76.1069 86.0212L76.1637 85.9563C93.0142 65.2795 111.907 48.0056 132.032 35.7227C167.695 13.9196 207.207 7.77816 246.071 26.081C278.953 41.5725 309.655 48.8563 339.417 50.8333C342.424 51.0277 345.431 51.1736 348.422 51.2627C416.691 53.4098 480.673 28.8196 555.807 12.9474C558.798 12.3154 561.797 11.6915 564.82 11.1001C618.419 0.437554 677.878 -5.18537 748.587 6.63575C755.933 7.83541 763.182 9.56846 770.276 11.8212C773.394 12.8258 776.398 13.9061 779.289 15.062C813.039 28.7872 831.445 54.1471 839.267 85.9239C840.007 88.8731 840.647 91.8737 841.188 94.9255C855.055 171.362 814.441 279.785 779.289 355.047Z" fill="#84E6F8"/>
<g opacity="0.1">
<path opacity="0.1" d="M132.032 35.7227V448.627L97.7232 449C90.4016 449.083 83.1109 448.039 76.1069 445.905V85.9563H76.1637C93.0142 65.2552 111.907 47.9813 132.032 35.7227Z" fill="#84E6F8"/>
<path opacity="0.1" d="M841.228 94.9338H69.104C71.4004 91.8873 73.7347 88.9165 76.1068 86.0213V85.9565H839.307C840.047 88.8895 840.688 91.8819 841.228 94.9338Z" fill="#84E6F8"/>
<path opacity="0.1" d="M779.289 15.0702V361.034H776.476C775.017 364.097 773.577 367.1 772.156 370.044C771.524 371.349 770.892 372.629 770.276 373.909V11.7969C773.394 12.8015 776.398 13.8926 779.289 15.0702Z" fill="#84E6F8"/>
<path opacity="0.1" d="M564.82 11.0757V443.936L555.807 444.033V12.923C558.798 12.291 561.797 11.6671 564.82 11.0757Z" fill="#84E6F8"/>
<path opacity="0.1" d="M348.422 51.2385V446.286L339.417 446.383V50.8091C342.424 51.0035 345.431 51.117 348.422 51.2385Z" fill="#84E6F8"/>
<path opacity="0.1" d="M776.477 361.042C775.018 364.105 773.578 367.108 772.157 370.052H11.7606C10.7178 367.087 9.74514 364.084 8.84277 361.042H776.477Z" fill="#84E6F8"/>
</g>
<path d="M186.904 215.381H171.504V262.098H186.904V215.381Z" fill="#3F3D56"/>
<path d="M601.342 212.95H585.942V262.374H601.342V212.95Z" fill="#3F3D56"/>
<path d="M699.551 432.375V442.907L576.418 444.042L575.105 444.066L528.307 444.495L527.188 444.512L512.964 444.633H512.542L425.834 445.435L283.5 446.756H283.379L247.189 447.096L246.8 447.104L85.9951 448.579V436.426L123.805 413.739L199.669 413.107L201.29 413.099L201.825 413.091L203.446 413.067L239.87 412.767L241.5 412.759L242.018 412.751L243.639 412.743L255.319 412.646L255.627 412.638L284.44 412.394H284.675L509.511 410.499L515.014 410.458H515.565L519.764 410.418L550.279 410.166L551.9 410.142L553.4 410.126H554.178L563.669 410.053L565.549 410.029L568.07 410.012L575.973 409.939L588.511 409.834L590.132 409.818L592.953 409.802H593.48L654.033 409.283L699.551 432.375Z" fill="#65617D"/>
<path opacity="0.2" d="M699.551 432.375V442.907L576.418 444.042L575.105 444.066L528.307 444.495L527.188 444.512L512.964 444.633H512.542L425.834 445.435L283.5 446.756H283.379L247.189 447.096L246.8 447.104L85.9951 448.579V436.426L123.805 413.739L199.669 413.107L201.29 413.099L201.825 413.091L203.446 413.067L239.87 412.767L241.5 412.759L242.018 412.751L243.639 412.743L255.319 412.646L255.627 412.638L284.44 412.394H284.675L509.511 410.499L515.014 410.458H515.565L519.764 410.418L550.279 410.166L551.9 410.142L553.4 410.126H554.178L563.669 410.053L565.549 410.029L568.07 410.012L575.973 409.939L588.511 409.834L590.132 409.818L592.953 409.802H593.48L654.033 409.283L699.551 432.375Z" fill="black"/>
<path d="M239.992 391.871V411.713C239.992 412.653 239.726 413.574 239.224 414.368C238.722 415.163 238.004 415.799 237.155 416.202C236.523 416.509 235.832 416.674 235.129 416.688L206.842 417.288C206.087 417.306 205.337 417.148 204.654 416.826C203.79 416.43 203.057 415.794 202.544 414.994C202.031 414.194 201.759 413.263 201.76 412.313V391.871H239.992Z" fill="#3F3D56"/>
<path opacity="0.1" d="M239.992 391.871V411.713C239.992 412.653 239.726 413.574 239.224 414.368C238.722 415.163 238.004 415.799 237.155 416.202C236.523 416.509 235.832 416.674 235.129 416.688L206.842 417.288C206.087 417.306 205.337 417.148 204.654 416.826C203.79 416.43 203.057 415.794 202.544 414.994C202.031 414.194 201.759 413.263 201.76 412.313V391.871H239.992Z" fill="black"/>
<path d="M241.613 391.871V411.713C241.614 412.653 241.347 413.574 240.845 414.368C240.343 415.163 239.626 415.799 238.776 416.202C238.144 416.509 237.453 416.674 236.75 416.688L208.463 417.288C207.708 417.306 206.959 417.148 206.275 416.826C205.411 416.43 204.679 415.794 204.166 414.994C203.653 414.194 203.38 413.263 203.381 412.313V391.871H241.613Z" fill="#3F3D56"/>
<path d="M590.132 391.871H551.9V417.393H590.132V391.871Z" fill="#3F3D56"/>
<path opacity="0.1" d="M590.132 391.871H551.9V417.393H590.132V391.871Z" fill="black"/>
<path d="M588.511 391.871H550.279V417.393H588.511V391.871Z" fill="#3F3D56"/>
<path opacity="0.1" d="M186.904 215.373V220.016L171.504 219.619V215.373H186.904Z" fill="black"/>
<path d="M288.266 84.5868L269.762 217.463C269.645 218.312 269.219 219.088 268.565 219.642C267.912 220.197 267.077 220.491 266.22 220.469L118.059 216.628L115.246 216.556C114.757 216.544 114.275 216.429 113.833 216.219C113.39 216.009 112.997 215.708 112.679 215.335C112.361 214.963 112.125 214.528 111.986 214.058C111.848 213.589 111.81 213.095 111.875 212.61L132.648 73.5111C132.782 72.6495 133.234 71.8694 133.915 71.3249C134.597 70.7803 135.457 70.511 136.328 70.57L285.024 80.6329C285.504 80.6607 285.972 80.7876 286.401 81.0056C286.829 81.2236 287.207 81.528 287.512 81.8995C287.816 82.271 288.041 82.7017 288.171 83.1642C288.3 83.6267 288.333 84.1111 288.266 84.5868V84.5868Z" fill="#65617D"/>
<path d="M142.593 80.3413L126.926 202.952L263.091 207.27L279.837 88.9783L142.593 80.3413Z" fill="#84E6F8"/>
<path d="M473.289 78.4458H316.042C313.656 78.4458 311.722 80.3792 311.722 82.7643V214.563C311.722 216.948 313.656 218.881 316.042 218.881H473.289C475.675 218.881 477.609 216.948 477.609 214.563V82.7643C477.609 80.3792 475.675 78.4458 473.289 78.4458Z" fill="#65617D"/>
<path d="M470.307 87.9009H319.552V204.84H470.307V87.9009Z" fill="#84E6F8"/>
<path opacity="0.1" d="M601.342 212.942V216.013L585.942 216.329V212.942H601.342Z" fill="black"/>
<path d="M670.826 210.349C670.848 210.685 670.802 211.022 670.691 211.339C670.579 211.657 670.405 211.948 670.177 212.196C669.95 212.445 669.675 212.644 669.369 212.784C669.063 212.923 668.731 212.999 668.395 213.007L516.667 216.142C516.037 216.155 515.425 215.93 514.955 215.51C514.484 215.091 514.19 214.509 514.131 213.882L501.089 78.3482C501.057 78.012 501.094 77.6727 501.197 77.3509C501.299 77.0292 501.467 76.7316 501.688 76.4763C501.909 76.221 502.18 76.0133 502.484 75.8657C502.788 75.7181 503.119 75.6338 503.456 75.6178L654.033 68.1314L655.654 68.0503C656.298 68.0164 656.93 68.234 657.417 68.6573C657.904 69.0805 658.208 69.6763 658.264 70.319L670.826 210.349Z" fill="#65617D"/>
<path d="M509.754 83.5824L647.273 76.8252L658.888 199.979L522.455 203.22L509.754 83.5824Z" fill="#84E6F8"/>
<path opacity="0.1" d="M670.826 210.349C670.848 210.685 670.802 211.022 670.691 211.339C670.579 211.657 670.405 211.948 670.177 212.196C669.95 212.445 669.675 212.644 669.369 212.784C669.063 212.923 668.731 212.999 668.395 213.007L654.033 68.1314L655.654 68.0503C656.298 68.0164 656.93 68.234 657.417 68.6573C657.904 69.0805 658.208 69.6763 658.264 70.319L670.826 210.349Z" fill="black"/>
<path opacity="0.1" d="M136.352 70.5623L118.059 216.629L115.246 216.556C114.757 216.544 114.275 216.43 113.833 216.22C113.39 216.009 112.997 215.708 112.679 215.336C112.361 214.964 112.125 214.528 111.986 214.059C111.848 213.589 111.81 213.096 111.875 212.61L132.648 73.5116C132.78 72.644 133.235 71.8583 133.922 71.3115C134.609 70.7648 135.477 70.4972 136.352 70.5623V70.5623Z" fill="black"/>
<path opacity="0.1" d="M186.904 248.26H171.504V262.098H186.904V248.26Z" fill="black"/>
<path opacity="0.1" d="M241.613 391.863V395.89L203.381 396.911V391.863H241.613Z" fill="black"/>
<path d="M309.088 253.08V389.359C309.078 390.191 308.749 390.987 308.168 391.583C307.587 392.179 306.799 392.529 305.967 392.56L150.633 396.692H150.593C149.747 396.681 148.939 396.341 148.34 395.743C147.742 395.145 147.402 394.337 147.391 393.492V253.08C147.402 252.235 147.742 251.427 148.34 250.829C148.939 250.231 149.747 249.89 150.593 249.88H305.886C306.732 249.89 307.54 250.231 308.139 250.829C308.737 251.427 309.077 252.235 309.088 253.08V253.08Z" fill="#65617D"/>
<path opacity="0.1" d="M150.633 249.88V396.692H150.593C149.747 396.681 148.939 396.341 148.34 395.743C147.742 395.145 147.402 394.337 147.391 393.492V253.08C147.402 252.235 147.742 251.427 148.34 250.829C148.939 250.231 149.747 249.89 150.593 249.88H150.633Z" fill="black"/>
<path d="M157.725 258.582H301.591V378.697L157.725 381.938V258.582Z" fill="#7BA4D6"/>
<path opacity="0.1" d="M601.342 248.26H585.942V262.374H601.342V248.26Z" fill="black"/>
<path opacity="0.1" d="M588.511 391.863V397.057L550.279 396.036V391.863H588.511Z" fill="black"/>
<path d="M638.965 253.08V393.492C638.955 394.344 638.609 395.158 638.002 395.757C637.395 396.356 636.576 396.692 635.723 396.692V396.692L480.357 392.56C479.525 392.529 478.737 392.179 478.156 391.583C477.576 390.987 477.246 390.191 477.236 389.359V253.08C477.247 252.235 477.588 251.427 478.186 250.829C478.784 250.231 479.592 249.89 480.438 249.88H635.732C636.583 249.882 637.399 250.219 638.005 250.818C638.61 251.416 638.955 252.229 638.965 253.08V253.08Z" fill="#65617D"/>
<path opacity="0.1" d="M638.965 253.08V393.492C638.955 394.344 638.608 395.158 638.001 395.757C637.395 396.356 636.576 396.692 635.723 396.692V396.692V249.88C636.576 249.88 637.395 250.216 638.001 250.815C638.608 251.414 638.955 252.228 638.965 253.08Z" fill="black"/>
<path d="M628.631 258.582H484.766V378.697L628.631 381.938V258.582Z" fill="#7BA4D6"/>
<path d="M473.216 253.08V389.359C473.206 390.191 472.877 390.987 472.296 391.583C471.715 392.179 470.927 392.529 470.096 392.56L314.762 396.692C313.909 396.692 313.09 396.356 312.483 395.757C311.876 395.158 311.53 394.344 311.52 393.492V253.08C311.53 252.235 311.871 251.427 312.469 250.829C313.067 250.231 313.875 249.89 314.721 249.88H470.015C470.86 249.89 471.669 250.231 472.267 250.829C472.865 251.427 473.206 252.235 473.216 253.08V253.08Z" fill="#65617D"/>
<path d="M321.854 258.582H465.719V378.697L321.854 381.938V258.582Z" fill="#7BA4D6"/>
<path opacity="0.1" d="M699.551 432.375V442.907L576.418 444.042L575.105 444.066L528.307 444.495L527.188 444.512L512.964 444.633H512.542L425.834 445.435L283.5 446.756H283.379L247.189 447.096L246.8 447.104L85.9951 448.579V436.426L250.131 435.348H250.52L283.743 435.121H283.897L513.336 433.606H513.571L513.709 433.598H514.09L517.973 433.574H519.156L579.531 433.169L583.097 433.152L583.891 433.144L699.551 432.375Z" fill="black"/>
<path d="M394.929 262.098C417.906 262.098 436.533 243.478 436.533 220.51C436.533 197.541 417.906 178.921 394.929 178.921C371.952 178.921 353.326 197.541 353.326 220.51C353.326 243.478 371.952 262.098 394.929 262.098Z" fill="#FBBEBE"/>
<path d="M436.541 305.583C436.541 305.583 355.895 315.305 363.595 305.583C366.383 302.066 367.153 291.647 366.999 279.777C366.95 276.172 366.821 272.436 366.634 268.718C365.743 250.893 363.595 233.473 363.595 233.473C363.595 233.473 434.109 200.254 426.004 226.586C422.762 237.224 423.824 252.165 426.288 266.19C427.009 270.281 427.844 274.292 428.719 278.1C430.856 287.388 433.466 296.561 436.541 305.583V305.583Z" fill="#FBBEBE"/>
<path opacity="0.1" d="M436.541 305.583C436.541 305.583 355.895 315.305 363.595 305.583C366.383 302.066 367.153 291.647 366.999 279.777C379.295 274.527 394.937 278.44 394.937 278.44C411.407 275.159 421.968 275.799 428.719 278.1C430.856 287.388 433.466 296.561 436.541 305.583V305.583Z" fill="black"/>
<path d="M283.468 447.671V446.991L425.81 445.443L512.534 444.633H512.777L512.688 445.832L512.81 444.633H512.964V444.495L514.074 433.598L514.495 429.474L514.625 428.186L514.739 427.108L519.748 410.409L524.757 393.735L528.971 379.694L535.407 358.239C535.407 358.239 531.759 349.732 529.733 347.301C527.707 344.871 525.681 328.261 525.681 328.261C525.681 328.261 508.384 311.789 500.822 309.893C497.653 309.083 491.396 308.006 484.75 306.652C482.262 306.15 479.708 305.615 477.253 305.032C475.867 304.716 474.505 304.384 473.2 304.052C470.66 303.417 468.157 302.644 465.703 301.734C464.416 301.267 463.191 300.644 462.056 299.879C456.098 295.512 441.169 295.018 440.593 295.018C440.592 294.999 440.592 294.98 440.593 294.961V294.888C440.614 294.548 440.614 294.207 440.593 293.867C440.593 293.543 440.593 293.162 440.52 292.733C440.52 292.603 440.52 292.465 440.464 292.328C440.423 292.036 440.374 291.728 440.301 291.404C440.277 291.259 440.244 291.116 440.204 290.975C439.969 289.998 439.63 289.05 439.191 288.147C439.134 288.017 439.061 287.88 438.997 287.75C438.599 287.002 438.138 286.289 437.619 285.619C437.513 285.481 437.4 285.336 437.278 285.198C436.614 284.415 435.876 283.699 435.074 283.059C434.855 282.889 434.628 282.71 434.393 282.548C434.262 282.442 434.124 282.345 433.979 282.257L433.258 281.787L432.585 281.398C431.994 281.074 431.37 280.758 430.689 280.458C430.478 280.361 430.251 280.272 430.024 280.183C429.797 280.093 429.441 279.956 429.141 279.842H429.092L428.484 279.599C428.022 279.445 427.552 279.307 427.058 279.17L426.304 278.975L425.493 278.789L424.683 278.619C423.872 278.457 423.005 278.311 422.097 278.198L421.173 278.084L420.225 277.987L419.244 277.906L417.85 277.825L416.229 277.768C409.08 277.767 401.951 278.525 394.962 280.029C390.106 278.949 385.133 278.491 380.162 278.667H379.457L378.646 278.716H378.127L377.082 278.813C376.733 278.813 376.377 278.886 376.028 278.935C375.68 278.983 375.315 279.024 374.966 279.081L374.431 279.17C373.904 279.259 373.37 279.356 372.81 279.47C372.632 279.502 372.454 279.542 372.275 279.591C371.57 279.745 370.865 279.931 370.168 280.142C369.82 280.239 369.471 280.353 369.123 280.474C368.944 280.523 368.774 280.588 368.604 280.652L368.085 280.839L367.574 281.041L366.967 281.284C366.659 281.414 366.359 281.552 366.059 281.698C365.889 281.771 365.718 281.852 365.556 281.941C365.394 282.03 365.224 282.103 365.07 282.192C363.237 283.138 361.544 284.333 360.037 285.741L359.623 286.138L359.218 286.551C359.08 286.689 358.951 286.834 358.821 286.98C358.293 287.557 357.8 288.166 357.346 288.803C357.216 288.973 357.095 289.144 356.973 289.322C356.459 290.08 355.993 290.87 355.579 291.688C355.474 291.882 355.376 292.085 355.279 292.279C354.618 293.648 354.075 295.071 353.658 296.533C353.507 297.073 353.369 297.613 353.245 298.153C353.245 298.153 336.086 305.721 321.854 311.198C318.068 312.656 314.502 313.977 311.52 314.973C310.652 315.265 309.842 315.532 309.088 315.784C307.453 316.375 305.752 316.766 304.022 316.95C303.207 316.964 302.394 317.04 301.591 317.177C295.05 318.239 283.841 322.849 282.617 327.475C282.517 327.845 282.49 328.23 282.536 328.609C282.536 328.609 282.536 328.666 282.536 328.699C283.346 334.37 277.673 333.56 277.673 333.56C277.673 333.56 275.646 348.549 272.81 352.6C270.759 355.517 269.357 362.023 269.179 366.933C269.077 368.463 269.197 369.999 269.535 371.494C269.535 371.535 269.535 371.575 269.535 371.608C269.859 372.694 269.081 375.659 267.76 379.459C266.326 383.632 264.234 388.817 262.224 393.711C259.193 401.1 256.34 407.808 256.162 409.283C256.089 409.939 255.878 411.114 255.586 412.629C254.403 418.803 251.777 430.559 250.48 435.315C249.516 438.864 248.113 443.726 247.149 447.064C247.149 447.161 247.092 447.258 247.068 447.347L283.403 446.991V447.671H283.516H283.468Z" fill="#84E6F8"/>
<path opacity="0.1" d="M296.728 352.17C296.728 352.17 342.927 376.072 359.542 373.236L296.728 352.17Z" fill="black"/>
<path opacity="0.1" d="M390.747 342.448C390.747 342.448 435.73 357.032 450.724 359.057C465.719 361.083 390.747 342.448 390.747 342.448Z" fill="black"/>
<path opacity="0.1" d="M440.642 295.52C417.137 299.847 372.883 298.915 353.755 298.259C360.766 273.142 394.954 281.681 394.954 281.681C437.27 273.239 440.512 290.756 440.642 295.52Z" fill="black"/>
<path d="M440.642 293.899C417.137 298.226 372.883 297.294 353.755 296.638C360.766 271.521 394.954 280.061 394.954 280.061C437.27 271.618 440.512 289.135 440.642 293.899Z" fill="#84E6F8"/>
<path d="M565.412 404.632C565.412 404.632 593.099 400.379 593.642 412.532C594.185 424.685 579.523 433.176 579.523 433.176L565.412 404.632Z" fill="#FBBEBE"/>
<path opacity="0.1" d="M426.287 266.19C425.097 266.722 423.879 267.192 422.64 267.599C413.903 270.613 405.093 273.652 395.893 274.754C386.694 275.856 377.041 274.883 369.017 270.297C368.174 269.822 367.362 269.294 366.585 268.718C365.694 250.893 363.546 233.473 363.546 233.473C363.546 233.473 434.06 200.254 425.955 226.586C422.729 237.224 423.824 252.165 426.287 266.19Z" fill="black"/>
<path d="M383.517 155.506C382.36 155.811 381.148 155.842 379.977 155.596C378.806 155.35 377.709 154.833 376.774 154.088L378.46 156.429C377.466 156.544 376.459 156.44 375.51 156.125C374.561 155.811 373.692 155.292 372.964 154.606C372.811 156.703 372.898 158.809 373.224 160.886C370.434 161.02 367.688 160.159 365.475 158.455C365.432 159.186 365.614 159.913 365.996 160.537C366.379 161.161 366.944 161.653 367.615 161.947C364.813 161.612 361.984 162.308 359.658 163.905C357.331 165.502 355.665 167.89 354.971 170.625L359.202 171.013C355.877 171.723 352.893 173.544 350.74 176.175C349.443 177.795 348.454 179.869 349.022 181.846C349.589 183.823 352.329 185.087 353.82 183.677C351.699 186.208 350.157 189.173 349.303 192.362C348.449 195.552 348.303 198.89 348.876 202.142C349.261 203.528 349.387 204.972 349.249 206.404C348.981 207.741 348.138 208.899 347.717 210.204C346.906 212.57 347.676 215.138 348.398 217.496L352.199 229.989C353.577 234.502 354.947 239.023 356.746 243.39C358.02 246.151 359.103 248.997 359.988 251.906C361.009 255.827 361.05 260.121 363.23 263.549C364.724 265.705 366.722 267.466 369.049 268.677C377.065 273.263 386.751 274.236 395.926 273.134C405.101 272.032 413.903 268.993 422.632 265.979C424.572 265.395 426.433 264.579 428.176 263.549C434.214 259.595 435.56 251.509 436.687 244.387C437.943 236.447 439.621 228.523 442.595 221.053C444.362 216.605 446.648 212.092 446.259 207.328C445.764 201 440.755 195.871 439.515 189.649C439.1 187.569 439.119 185.425 439.572 183.353C439.957 182.118 440.172 180.838 440.212 179.545C440.074 176.936 437.935 174.927 435.925 173.25C431.564 169.609 427.063 166.168 422.422 162.927C422.187 161.307 424.391 160.61 425.388 159.33C426.798 157.523 425.339 154.655 423.2 153.812C421.06 152.97 418.661 153.521 416.432 154.08C416.577 152.939 416.35 151.782 415.785 150.781C415.22 149.78 414.346 148.988 413.294 148.523C412.243 148.058 411.069 147.944 409.947 148.2C408.826 148.455 407.817 149.065 407.071 149.94C406.479 148.583 405.533 147.41 404.332 146.543C403.132 145.677 401.721 145.148 400.246 145.013C394.872 144.592 394.767 148.7 391.33 150.96C387.894 153.221 385.057 150.239 382.415 148.068C381.929 149.295 381.776 150.629 381.969 151.935C382.163 153.24 382.696 154.472 383.517 155.506V155.506Z" fill="#3F3D56"/>
<path d="M585.942 428.939C585.942 428.939 585.22 430.657 583.891 433.144C581.88 436.971 579.432 440.552 576.596 443.815L576.378 444.05H575.064L528.266 444.479H527.147L527.009 444.317L517.932 433.549L514.511 429.49L514.374 429.32L514.082 428.98L513.92 428.785L513.709 428.534L507.055 420.642L509.486 410.515L513.628 393.451L513.733 393.038L514.544 389.797L515.119 387.367L517.048 379.443L523.662 352.179L535.414 358.255L547.807 380.131L554.461 391.88H558.109C558.798 391.88 560.378 393.208 561.967 394.74C562.534 395.282 563.101 395.858 563.588 396.36C565.03 397.851 566.173 399.131 566.173 399.131C566.173 399.131 572.082 399.261 573.67 403.911C573.752 404.136 573.82 404.366 573.873 404.6C574.4 406.428 575.087 408.206 575.924 409.915C576.969 412.192 578.282 414.776 579.611 417.361C582.084 422.101 584.596 426.614 585.52 428.25L585.634 428.453L585.942 428.939Z" fill="#84E6F8"/>
<path opacity="0.1" d="M516.319 392.358L516.238 393.516V393.597L516.1 395.461L515.022 410.458L513.717 428.526L513.344 433.614L512.534 444.503V444.641L425.809 445.451L283.492 446.991V447.671H283.378V446.991V446.764L283.743 435.129L284.44 412.394L285.04 393.119L285.097 391.199C285.132 390.04 285.404 388.9 285.894 387.85C286.385 386.799 287.085 385.86 287.951 385.088C288.818 384.317 289.832 383.731 290.933 383.365C292.033 382.999 293.197 382.861 294.353 382.959C298.178 383.283 303.147 383.68 309.088 384.101L311.519 384.28C345.828 386.662 409.234 389.741 473.216 385.9C474.561 385.827 475.915 385.746 477.269 385.649C487.189 385.025 497.102 384.223 506.917 383.218C508.158 383.088 509.412 383.232 510.591 383.639C511.771 384.046 512.846 384.706 513.743 385.574C514.639 386.441 515.334 387.495 515.779 388.66C516.224 389.825 516.409 391.073 516.319 392.317V392.358Z" fill="black"/>
<path d="M283.468 447.671V446.991L425.809 445.443L512.534 444.633H512.777V444.495L513.588 433.606L513.936 428.745L515.265 410.425L516.311 395.922V395.566C516.359 394.898 516.329 394.226 516.222 393.565C516.226 393.538 516.226 393.511 516.222 393.484C515.999 392.116 515.442 390.825 514.601 389.724C513.708 388.58 512.539 387.682 511.203 387.115C509.867 386.548 508.409 386.331 506.966 386.483C497.151 387.488 487.238 388.29 477.317 388.914C475.964 389.011 474.61 389.092 473.265 389.165C409.283 392.965 345.877 389.886 311.568 387.545L309.137 387.367C303.196 386.945 298.227 386.556 294.402 386.224C292.297 386.047 290.201 386.655 288.519 387.931C286.837 389.207 285.687 391.061 285.291 393.135C285.21 393.574 285.161 394.018 285.146 394.464L284.594 412.419L283.841 435.161L283.484 446.796V447.023V447.704L283.468 447.671Z" fill="#3F3D56"/>
<path opacity="0.1" d="M516.562 398.037L515.565 410.458L514.082 428.971L513.709 433.606L512.899 443.985L512.85 444.503V444.641L512.729 445.84L512.818 444.641H512.583L425.858 445.451L283.492 446.991V446.764L283.889 435.129L284.7 412.394L285.219 397.284C285.244 396.424 285.484 395.585 285.918 394.842C286.351 394.099 286.963 393.476 287.699 393.03C288.617 392.468 289.69 392.212 290.762 392.301C292.465 392.439 294.556 392.601 296.995 392.779C300.959 393.071 305.846 393.411 311.536 393.767C322.072 394.432 335.292 395.145 350.44 395.728C392.587 397.349 449.485 397.891 503.529 393.16C505.961 392.949 508.473 392.714 510.929 392.479C511.901 392.382 512.881 392.568 513.75 393.014C513.996 393.136 514.23 393.283 514.447 393.451C515.152 393.962 515.711 394.65 516.068 395.445C516.151 395.603 516.218 395.768 516.271 395.939C516.514 396.61 516.613 397.325 516.562 398.037V398.037Z" fill="black"/>
<path opacity="0.1" d="M241.613 409.129V411.714C241.614 412.653 241.347 413.574 240.845 414.369C240.343 415.163 239.626 415.799 238.776 416.202L206.275 416.826C205.411 416.43 204.679 415.794 204.166 414.994C203.653 414.194 203.38 413.263 203.381 412.313V409.882L241.613 409.129Z" fill="black"/>
<path d="M242.018 417.726L199.669 418.536V411.511L242.018 410.701V417.726Z" fill="#3F3D56"/>
<path opacity="0.1" d="M242.018 417.726L199.669 418.536V411.511L242.018 410.701V417.726Z" fill="black"/>
<path d="M243.639 417.726L201.29 418.536V411.511L243.639 410.701V417.726Z" fill="#3F3D56"/>
<g opacity="0.1">
<path opacity="0.1" d="M383.849 152.848C383.057 151.819 382.531 150.612 382.317 149.332C382.122 150.583 382.239 151.863 382.657 153.059C383.06 153.021 383.458 152.951 383.849 152.848Z" fill="black"/>
<path opacity="0.1" d="M373.556 158.228C373.403 157.235 373.303 156.234 373.256 155.23C373.256 156.227 373.256 157.231 373.256 158.236L373.556 158.228Z" fill="black"/>
<path opacity="0.1" d="M439.612 185.265C439.657 184.543 439.754 183.825 439.904 183.118C440.287 181.885 440.505 180.608 440.552 179.318C440.534 179.028 440.491 178.741 440.422 178.459C440.285 179.204 440.066 179.95 439.904 180.687C439.58 182.19 439.482 183.733 439.612 185.265Z" fill="black"/>
<path opacity="0.1" d="M422.754 160.229L423.637 160.869C424.382 160.33 425.079 159.729 425.72 159.07C426.025 158.649 426.214 158.154 426.268 157.637C426.322 157.119 426.239 156.597 426.028 156.121C425.947 156.306 425.844 156.48 425.72 156.64C424.723 157.92 422.519 158.625 422.754 160.229Z" fill="black"/>
<path opacity="0.1" d="M356.154 168.023C355.858 168.614 355.622 169.233 355.449 169.871C356.717 169.163 358.082 168.647 359.501 168.339L356.154 168.023Z" fill="black"/>
<path opacity="0.1" d="M367.331 159.208C366.799 158.915 366.289 158.582 365.807 158.211C365.787 158.532 365.811 158.854 365.88 159.167C366.364 159.144 366.849 159.158 367.331 159.208V159.208Z" fill="black"/>
<path opacity="0.1" d="M446.574 206.946C446.242 210.876 444.41 214.66 442.927 218.387C439.953 225.857 438.275 233.781 437.019 241.729C435.892 248.851 434.587 256.937 428.508 260.883C426.771 261.92 424.912 262.737 422.972 263.313C414.235 266.335 405.425 269.366 396.226 270.468C387.026 271.569 377.373 270.605 369.349 266.019C367.023 264.806 365.026 263.046 363.53 260.891C361.366 257.464 361.325 253.169 360.288 249.248C359.403 246.336 358.32 243.488 357.046 240.724C355.254 236.365 353.876 231.812 352.507 227.331C351.237 223.167 349.97 219 348.705 214.83C348.289 213.575 347.98 212.288 347.781 210.981C347.465 213.055 348.081 215.227 348.705 217.26C349.97 221.436 351.237 225.603 352.507 229.762C353.876 234.275 355.254 238.796 357.046 243.155C358.32 245.919 359.403 248.767 360.288 251.679C361.309 255.6 361.349 259.894 363.53 263.321C365.026 265.477 367.023 267.237 369.349 268.45C377.373 273.036 387.051 274 396.226 272.898C405.401 271.796 414.203 268.766 422.972 265.744C424.912 265.167 426.771 264.351 428.508 263.313C434.546 259.368 435.892 251.282 437.019 244.16C438.275 236.211 439.953 228.288 442.927 220.817C444.694 216.377 446.98 211.864 446.591 207.092C446.591 207.044 446.574 206.995 446.574 206.946Z" fill="black"/>
<path opacity="0.1" d="M349.564 203.811C349.564 203.811 349.564 203.754 349.564 203.722C349.711 202.293 349.584 200.85 349.192 199.468C349.03 198.579 348.924 197.681 348.876 196.778C348.782 198.492 348.888 200.21 349.192 201.899C349.321 202.531 349.467 203.171 349.564 203.811Z" fill="black"/>
<path opacity="0.1" d="M352.037 183.993C352.66 182.946 353.368 181.951 354.152 181.019C352.669 182.437 349.929 181.173 349.354 179.204C349.142 180 349.142 180.838 349.354 181.635C349.553 182.229 349.907 182.761 350.378 183.175C350.849 183.589 351.421 183.871 352.037 183.993V183.993Z" fill="black"/>
</g>
<path opacity="0.1" d="M554.47 391.871C554.47 391.871 557.039 401.189 554.47 409.291C551.9 417.393 554.47 391.871 554.47 391.871Z" fill="black"/>
<path opacity="0.1" d="M565.412 401.375C565.412 401.375 566.49 413.204 564.058 415.303C561.626 417.401 565.412 401.375 565.412 401.375Z" fill="black"/>
<path d="M161.283 277.792L243.639 276.982" stroke="#84E6F8" stroke-width="2" stroke-miterlimit="10"/>
<path d="M161.283 287.896L243.639 287.094" stroke="#84E6F8" stroke-width="2" stroke-miterlimit="10"/>
<path d="M161.283 298.007L243.639 297.197" stroke="#84E6F8" stroke-width="2" stroke-miterlimit="10"/>
</g>
<defs>
<clipPath id="clip0">
<rect width="844" height="449" fill="white"/>
</clipPath>
</defs>
</svg>
